<?xml version="1.0" encoding="UTF-8"?>
<svg width="24px" height="24px" viewBox="0 0 24 24" version="1.1" xmlns="http://www.w3.org/2000/svg" xmlns:xlink="http://www.w3.org/1999/xlink">
    <title>Icons/24 Extensions/Bitly</title>
    <g id="Icons" stroke="none" stroke-width="1" fill="none" fill-rule="evenodd">
        <g id="Icons/24-Extensions/Bitly" fill="#000000">
            <path d="M8.68302269,6.00757761 C10.6242709,6.03537142 11.5542095,7.21222037 11.6159377,9.11533313 L11.6131296,9.68148938 L11.588,11.438 L11.6967436,11.3866742 C12.1966867,11.1637409 12.7452916,11.020565 13.3699997,10.965024 L13.6888227,10.9445928 L13.9787969,10.9388689 C16.6367302,10.9388689 18.5942031,12.9754541 18.5942031,16.0517839 C18.5942031,18.1300703 18.0425931,20.1120014 16.9772971,21.1772974 C15.6567344,22.4978601 14.2123492,22.8750004 12,22.8750004 C9.70569768,22.8750004 7.62246875,20.6307423 7.62253732,18.3959545 L7.63824636,17.0882049 L7.64720932,15.8536192 L7.64924682,14.3834471 L7.64201242,13.1109481 L7.62000919,11.6279035 L7.59532821,10.6688286 L7.563,9.829 L7.49428503,9.86040157 C7.19973472,9.97638169 6.87376583,10.0024539 6.57795112,9.91698845 L6.43284167,9.86486079 L6.31133812,9.80352747 C5.6583555,9.42421016 5.49958678,8.63215553 5.80488154,7.920407 C6.34464729,6.71095804 7.25660797,6.06321291 8.46634074,6.01066389 L8.68302269,6.00757761 Z M8.66369606,7.35743926 C7.89315271,7.34654837 7.39215482,7.67632702 7.04164709,8.46152905 L7.00961137,8.54846351 L6.994,8.612 L7.05722598,8.56757975 L7.08707236,8.53716396 C7.3634384,8.19210393 7.65202361,8.02925023 8.05428476,8.07283668 C8.59335416,8.13097489 8.79380784,8.47503612 8.86154469,8.94876519 L8.88038321,9.12178105 L8.92506967,10.0841447 L8.96207997,11.259922 L8.98248905,12.3174925 L8.99531744,13.5096464 L8.99924521,14.3819766 L8.99719659,15.8589745 L8.98820125,17.098766 L8.97246875,18.4055753 C8.97246875,19.9066881 10.4746645,21.5250004 12,21.5250004 C13.8879357,21.5250004 15.014582,21.2308242 16.0227029,20.2227033 C16.7834879,19.4619183 17.2442031,17.8065716 17.2442031,16.0517839 C17.2442031,13.709334 15.8789167,12.2888689 13.9787969,12.2888689 C12.8348323,12.2888689 12.0575102,12.601701 11.3325329,13.1947279 C10.8917914,13.5552517 10.2301562,13.241671 10.2301562,12.6722586 L10.2498172,10.5418698 L10.2693437,9.30992051 C10.2693437,7.96459852 9.83606184,7.3742246 8.66369606,7.35743926 Z M16.0465,16.3662353 C16.0461777,18.6122295 15.1804278,20.3617406 13.0018385,20.3999352 C11.3322718,20.4292213 10.1995903,19.7508324 10.1256708,18.3051637 C10.104976,17.8988623 10.1086762,17.4357198 10.1323975,17.1236347 C10.2667765,15.3498591 11.5010686,13.8804542 12.9835678,13.5838653 C14.8406277,13.2122705 16.0465,14.2585469 16.0465,16.3662353 Z M13.2484254,14.9076291 C12.3739637,15.0825739 11.568225,16.0417929 11.4785273,17.2257843 C11.4592816,17.478987 11.4560354,17.8853033 11.4739162,18.2363585 C11.5028335,18.8019021 11.9474979,19.0682219 12.9781678,19.0501427 C14.1717808,19.0292165 14.6962699,17.9693265 14.6965,16.3661384 C14.6965,15.0927671 14.251737,14.706868 13.2484254,14.9076291 Z" id="Bitly-path-2" fill-rule="nonzero"></path>
            <path d="M12,1 C18.0751322,1 23,5.92486775 23,12 C23,18.0751322 18.0751322,23 12,23 C11.5857864,23 11.25,22.6642136 11.25,22.25 C11.25,21.8357864 11.5857864,21.5 12,21.5 C17.2467051,21.5 21.5,17.2467051 21.5,12 C21.5,6.75329488 17.2467051,2.5 12,2.5 C6.75329488,2.5 2.5,6.75329488 2.5,12 C2.5,15.0049665 3.90362352,17.7757824 6.24944793,19.5625114 C6.57896484,19.8134925 6.64263075,20.284079 6.39164972,20.6135959 C6.14066869,20.9431128 5.67008213,21.0067788 5.34056521,20.7557977 C2.62614072,18.6883195 1,15.4782446 1,12 C1,5.92486775 5.92486775,1 12,1 Z" id="Path"></path>
        </g>
    </g>
</svg>