<?xml version="1.0" encoding="UTF-8"?>
<svg width="18px" height="18px" viewBox="0 0 18 18" version="1.1" xmlns="http://www.w3.org/2000/svg" xmlns:xlink="http://www.w3.org/1999/xlink">
    <title>Glyphs/18/Message Delivered</title>
    <g id="Icons" stroke="none" stroke-width="1" fill="none" fill-rule="evenodd">
        <g id="Glyphs/18/Message-Delivered" fill="#000000">
            <path d="M14.2282564,4.53695382 C14.4839897,4.11073158 15.0368239,3.97252302 15.4630462,4.22825637 C15.8564821,4.46431791 16.0045099,4.95353051 15.8238142,5.36263251 L15.7717436,5.46304618 L10.9717436,13.4630462 C10.6905821,13.9316487 10.0682675,14.0371918 9.64992747,13.7125672 L9.5636039,13.6363961 L9.09623907,13.1690313 L14.2282564,4.53695382 Z M10.2282564,4.53695382 C10.4839897,4.11073158 11.0368239,3.97252302 11.4630462,4.22825637 C11.8564821,4.46431791 12.0045099,4.95353051 11.8238142,5.36263251 L11.7717436,5.46304618 L6.97174363,13.4630462 C6.69058211,13.9316487 6.06826751,14.0371918 5.64992747,13.7125672 L5.5636039,13.6363961 L2.3636039,10.4363961 C2.01213203,10.0849242 2.01213203,9.51507576 2.3636039,9.1636039 C2.68578644,8.84142136 3.191466,8.81457281 3.54423138,9.08305826 L3.6363961,9.1636039 L6.021,11.548 L10.2282564,4.53695382 Z" id="Double-Check"></path>
        </g>
    </g>
</svg>