<?xml version="1.0" encoding="UTF-8"?>
<svg width="28px" height="28px" viewBox="0 0 28 28" version="1.1" xmlns="http://www.w3.org/2000/svg" xmlns:xlink="http://www.w3.org/1999/xlink">
    <title>Glyphs/28/Sticker</title>
    <g id="Icons" stroke="none" stroke-width="1" fill="none" fill-rule="evenodd" stroke-linecap="round" stroke-linejoin="round">
        <g id="Glyphs/28/Sticker" stroke="#000000" stroke-width="1.5">
            <g id="Group" transform="translate(3.000000, 3.000000)">
                <path d="M6.24084056,8.06672043 C6.44613829,8.06672043 6.61256499,8.23307088 6.61256499,8.43827455 C6.61256499,8.64347823 6.44613829,8.80982868 6.24084056,8.80982868 C6.03554282,8.80982868 5.86911613,8.64347823 5.86911613,8.43827455 C5.86911613,8.33973227 5.90827984,8.24522603 5.97799169,8.17554611 C6.04770355,8.1058662 6.14225311,8.06672043 6.24084056,8.06672043" id="Path"></path>
                <path d="M4.65612061,14.3440295 C5.89723448,16.6998159 8.3411049,18.1752524 11.0047826,18.1769036 C11.3056632,18.1750336 11.6061721,18.1554442 11.904747,18.1182372" id="Path"></path>
                <path d="M22,10.5307109 C21.7432828,4.52213382 16.706394,-0.166516707 10.6920178,0.0045349881 C4.67764153,0.175586683 -0.084374559,5.14292268 0.00113372631,11.156369 C0.0866420116,17.1698154 4.98797222,22 11.0047826,22 L11.4938937,22" id="Path"></path>
                <path d="M13.401427,8.71205128 C13.8150925,8.05511485 14.5372689,7.65652229 15.3138513,7.65652229 C16.0904338,7.65652229 16.8126102,8.05511485 17.2262757,8.71205128" id="Path"></path>
                <line x1="22" y1="10.5307109" x2="11.4938937" y2="21.9902223" id="Path"></line>
                <path d="M11.4938937,21.9902223 L11.4938937,21.0124483 C11.5046846,15.2203827 16.2052695,10.5307109 22,10.5307109" id="Path"></path>
            </g>
        </g>
    </g>
</svg>